<svg width="273" height="197" viewBox="0 0 273 197" fill="none" xmlns="http://www.w3.org/2000/svg">
<path d="M107.413 61.5H96.178L69.193 133.95V135H78.748L85.678 115.785H117.808L124.738 135H134.503V133.95L107.413 61.5ZM88.618 107.595L101.533 71.685H101.953L114.868 107.595H88.618ZM184.655 104.76C194.21 102.03 200.51 94.47 200.51 83.55C200.51 71.055 192.215 61.5 177.2 61.5H148.115V135H157.25V105.915H175.1L194.42 135H204.395V133.95L184.655 104.76ZM157.25 69.9H176.675C185.915 69.9 190.955 75.045 190.955 83.655C190.955 92.475 185.915 97.515 176.675 97.515H157.25V69.9Z" fill="#171717"/>
</svg>
